<?xml version="1.0" encoding="UTF-8" standalone="no"?>
<!DOCTYPE svg PUBLIC "-//W3C//DTD SVG 1.1//EN" "http://www.w3.org/Graphics/SVG/1.1/DTD/svg11.dtd">
<svg width="100%" height="100%" viewBox="0 0 1582 357" version="1.1" xmlns="http://www.w3.org/2000/svg" xmlns:xlink="http://www.w3.org/1999/xlink" xml:space="preserve" xmlns:serif="http://www.serif.com/" style="fill-rule:evenodd;clip-rule:evenodd;stroke-linejoin:round;stroke-miterlimit:1.41421;">
    <g transform="matrix(1,0,0,1,-7645,-2056)">
        <g id="_7A" serif:id="7A" transform="matrix(1,0,0,1,-0.186335,-0.732838)">
            <rect x="7645.19" y="2056.73" width="1581.42" height="356.803" style="fill:none;"/>
            <clipPath id="_clip1">
                <rect x="7645.19" y="2056.73" width="1581.42" height="356.803"/>
            </clipPath>
            <g clip-path="url(#_clip1)">
                <g transform="matrix(0.251542,0,0,0.251542,7645.37,1962.69)">
                    <g transform="matrix(3.31524,0,0,3.31524,0,376.777)">
                        <text x="1218.8px" y="324.761px" style="font-family:'AmpleSoft-Bold', 'AmpleSoft';font-size:515.666px;fill:white;">p<tspan x="1488.5px 1629.8px " y="324.761px 324.761px ">ro</tspan></text>
                    </g>
                    <g transform="matrix(3.31524,0,0,3.31524,0,376.777)">
                        <g>
                            <g transform="matrix(1.57355,0,0,1.57355,0,60.4243)">
                                <path d="M44,64.5C44,49.4 48,41.3 69.9,41.3L73.6,41.3C87.4,42.3 90.7,40.3 90.7,25.2L90.7,21.5C90.7,6.4 87,0 73.6,0L69.9,0C23.8,0 0,21.5 0,61.1L0,153.1C0,168.2 3.7,171.9 18.8,171.9L25.2,171.9C40.3,171.9 44,168.2 44,153.1L44,64.5Z" style="fill:white;fill-rule:nonzero;"/>
                            </g>
                            <g transform="matrix(1.57355,0,0,1.57355,0,60.4243)">
                                <path d="M139.2,62C139.2,45.6 149.7,37.1 171.4,37.1C193.1,37.1 203.9,45.6 203.9,62L203.9,66.9L139.3,66.9L139.3,62L139.2,62ZM244.6,70.9C244.6,24.3 220.7,0 172.7,0C115.6,0 96.3,31.5 96.3,73.8L96.3,100.1C96.3,150.9 123.9,171.9 181.9,171.9C200.3,171.9 215.7,169.3 221.9,167.6C236.3,164 239.3,161 239.3,146.3L239.3,142.7C239.3,127.9 236.4,124 221.9,126.9C215.7,128.2 199.3,131.5 182.2,131.5C151.7,131.5 139.2,123.6 139.2,106.6L139.2,101.7L222.5,101.7C237.6,101.7 241.9,98.7 243.8,83.7C244.6,77.7 244.6,73.5 244.6,70.9" style="fill:white;fill-rule:nonzero;"/>
                            </g>
                            <g transform="matrix(1.57355,0,0,1.57355,0,60.4243)">
                                <path d="M303.2,67.8C303.2,50.7 308.2,41.3 335.8,41.3C363.3,41.3 367.7,50.7 367.7,67.8L367.7,153.1C367.7,168.2 371.4,171.9 386.5,171.9L392.9,171.9C408,171.9 411.7,168.2 411.7,153.1L411.7,67.8C411.7,22.8 388.9,0 335.8,0C285.1,0 259.2,23.8 259.2,67.8L259.2,153.1C259.2,168.2 262.9,171.9 278,171.9L284.4,171.9C299.5,171.9 303.2,168.2 303.2,153.1L303.2,67.8Z" style="fill:white;fill-rule:nonzero;"/>
                            </g>
                            <g transform="matrix(1.57355,0,0,1.57355,0,0)">
                                <path d="M421,66.6C421,79.7 424.3,83 437.4,83L450.5,83L450.5,147.6C450.5,195.5 477.4,210.3 513.8,210.3C525.3,210.3 532.5,209.3 536.8,208.3C551.2,205.3 554.8,199.8 554.8,185L554.8,181.4C554.8,166.6 551.2,165.3 536.8,167.9C533.5,168.6 525.3,169.9 513.8,169.9C501.3,169.9 493.1,164.3 493.1,147.9L493.1,83L530.5,83C545.3,83 548.9,79.4 548.9,64.6L548.9,61C548.9,46.2 545.3,42.6 530.5,42.6L493.1,42.6L493.1,17.1C493.1,3.3 489.8,0 476,0L474,0C460.2,0 456.3,3.3 454.3,16.7L450.4,42.6L436.9,45.6C424.1,48.2 420.8,52.2 420.8,65.3L420.8,66.6L421,66.6Z" style="fill:white;fill-rule:nonzero;"/>
                            </g>
                            <g transform="matrix(1.57355,0,0,1.57355,0,60.267)">
                                <path d="M665.8,116.9C665.8,134.9 651.4,136.3 636.6,136.3C621.8,136.3 608.7,135 608.7,119.2C608.7,107.1 616.2,101.2 632,101.2L665.8,101.2L665.8,116.9ZM708.5,56.5C708.5,13.5 677.3,0.1 629.1,0.1C615.3,0.1 607.4,1.1 602.5,1.7C588.4,3.7 584.8,7.6 584.8,21.7L584.8,23C584.8,37.8 589.1,40.4 603.2,38.4C608.1,37.7 618.6,36.4 631.7,36.4C652,36.4 665.8,39.4 665.8,56.4L665.8,68.9L632.7,68.9C593.7,68.9 566.1,81.7 566.1,120.1C566.1,153.9 587.1,171.9 637.3,171.9C687.8,171.9 708.5,153.8 708.5,119.1L708.5,56.5Z" style="fill:white;fill-rule:nonzero;"/>
                            </g>
                        </g>
                    </g>
                </g>
            </g>
        </g>
    </g>
</svg>
