<?xml version="1.0" encoding="utf-8"?>
<!-- Generator: Adobe Illustrator 25.2.3, SVG Export Plug-In . SVG Version: 6.00 Build 0)  -->
<svg version="1.1" id="Layer_1" xmlns="http://www.w3.org/2000/svg" xmlns:xlink="http://www.w3.org/1999/xlink" x="0px" y="0px"
	 width="4938px" height="768px" viewBox="0 0 4938 768" enable-background="new 0 0 4938 768" xml:space="preserve">
<g>
	<path fill="#FFFFFF" d="M152.4,198.1h-7.1c-88.8,0-134.7,41.4-134.7,117.7v177.3c0,29.1,7.1,36.2,36.2,36.2h12.3
		c29.1,0,36.2-7.1,36.2-36.2V322.4c0-29.1,7.7-44.7,49.9-44.7h7.1c26.6,1.9,32.9-1.9,32.9-31v-7.1
		C185.4,210.5,178.2,198.1,152.4,198.1z"/>
	<path fill="#FFFFFF" d="M343.4,198.1c-110,0-147.2,60.7-147.2,142.2V391c0,97.9,53.2,138.3,164.9,138.3c35.5,0,65.1-5,77.1-8.3
		c27.7-6.9,33.5-12.7,33.5-41v-6.9c0-28.5-5.6-36-33.5-30.4c-11.9,2.5-43.5,8.9-76.5,8.9c-58.8,0-82.8-15.2-82.8-48v-9.4h160.5
		c29.1,0,37.4-5.8,41-34.7c1.5-11.6,1.5-19.7,1.5-24.7C481.9,244.9,435.8,198.1,343.4,198.1z M403.5,327H279v-9.4h-0.2
		c0-31.6,20.2-48,62-48c41.8,0,62.6,16.4,62.6,48V327z"/>
	<path fill="#FFFFFF" d="M657.6,198.1C559.9,198.1,510,244,510,328.8v164.3c0,29.1,7.1,36.2,36.2,36.2h12.3
		c29.1,0,36.2-7.1,36.2-36.2V328.8c0-32.9,9.6-51.1,62.8-51.1c53,0,61.5,18.1,61.5,51.1v164.3c0,29.1,7.1,36.2,36.2,36.2h12.3
		c29.1,0,36.2-7.1,36.2-36.2V328.8C803.8,242.1,759.9,198.1,657.6,198.1z"/>
	<path fill="#FFFFFF" d="M1044.9,447.6c-6.4,1.3-22.2,3.9-44.3,3.9c-24.1,0-39.9-10.8-39.9-42.4v-125h72.1
		c28.5,0,35.5-6.9,35.5-35.5v-6.9c0-28.5-6.9-35.5-35.5-35.5h-72.1v-49.1c0-26.6-6.4-32.9-32.9-32.9h-3.9c-26.6,0-34.1,6.4-38,32.2
		l-7.5,49.9l-26,5.8c-24.7,5-31,12.7-31,38v2.5h0.4c0,25.2,6.4,31.6,31.6,31.6h25.2v124.5c0,92.3,51.8,120.8,122,120.8
		c22.2,0,36-1.9,44.3-3.9c27.7-5.8,34.7-16.4,34.7-44.9v-6.9C1079.5,445.1,1072.6,442.6,1044.9,447.6z"/>
	<path fill="#FFFFFF" d="M1222.7,198.1c-26.6,0-41.8,1.9-51.2,3.1c-27.2,3.9-34.1,11.4-34.1,38.5v2.5c0,28.5,8.3,33.5,35.5,29.7
		c9.4-1.3,29.7-3.9,54.9-3.9c39.1,0,65.7,5.8,65.7,38.5v24.1h-63.8c-75.1,0-128.3,24.7-128.3,98.6c0,65.1,40.5,99.8,137.2,99.8
		c97.3,0,137.2-34.9,137.2-101.7V306.8C1375.7,223.9,1315.5,198.1,1222.7,198.1z M1293.4,423.2c0,34.7-27.7,37.4-56.3,37.4
		c-28.5,0-53.8-2.5-53.8-32.9c0-23.3,14.4-34.7,44.9-34.7h65.1V423.2z"/>
	<path fill="#FFFFFF" d="M2613.6,314.4c-1.3-35.7-11-68.6-40.7-92c-39.3-30.9-121.6-37.4-161.9-8.3c-20.7,15-31,15.1-51.8-0.2
		c-30.6-22.5-68.8-21.1-105.5-14.1c-57.7,10.9-91.4,43-97.2,101c-6.6,65.5-2.5,131.6-1.6,197.4c0.1,8.7,4.4,16.4,12.5,21.1
		c35.7,20.7,73.7,0.3,73.7-39.7c0.1-52.3,0-104.5,0.2-156.8c0.1-15.1,1.7-29.8,17.1-38.3c42.3-23.4,83.4-0.3,83.5,46.9
		c0.1,51.7,0,103.4,0.1,155.1c0,11.5-0.1,24.2,10.9,30.7c18.3,10.8,38.8,9.5,57.8,2.6c16.4-6,15.3-22.2,15.3-36.5
		c0-52.3-0.1-104.5,0.1-156.8c0.1-13.7,0-28.8,11.9-37.7c21.1-15.7,45.6-13.4,68.7-5.8c19.9,6.6,20.1,25.4,20.1,42.8
		c0,52.8-0.1,105.6,0.2,158.5c0.2,30.7,9.1,39.1,40.1,39.6c2.8,0,5.7,0,8.5,0c29.2-0.5,38-8.9,38.3-37.5c0.3-28.4,0.1-56.8,0.1-85.2
		c-0.1,0-0.1,0-0.2,0C2613.8,372.4,2614.7,343.4,2613.6,314.4z"/>
	<path fill="#FFFFFF" d="M2883.5,203.3c-33.5-8.3-67.5-9.8-101.6-2.7c-67.2,13.9-101,51.4-109.1,119.3c-2.7,22.7-1.6,45.3-1.7,68
		c-0.2,72.6-0.2,145.3,0,217.9c0,13.5-1.6,29.4,11.1,37.6c18.3,11.8,39.7,9.5,59.3,3.1c16.8-5.4,16-21.6,16.1-35.9
		c0.1-35.1,0-70.3,0-107.7c43.9,26.3,57.1,29.9,98.7,28.1c58.6-2.5,100.7-35.3,114.3-92c11-45.8,8.9-92.7,2.8-138.7
		C2966.7,248,2934.6,215.9,2883.5,203.3z M2888.9,407.3c-1.7,22.4-13.6,35-35.6,39.5c-16.8,3.5-33.6,4-50.8,1.1
		c-27.7-4.6-40.3-14.6-43.3-41.9c-3.1-28.1-2.5-56.5,0-84.8c2-22.7,15.3-36.3,37.3-40.3c20.8-3.8,41.8-4.4,62.4,1.3
		c18.7,5.2,28.8,17.9,30,36.8c0.9,14.7,0.2,29.4,0.2,44.1C2889.1,377.9,2890,392.7,2888.9,407.3z"/>
	<path fill="#FFFFFF" d="M3912.4,200c-27.1-5.3-54.4-5.2-81.5,0.1c-62.2,12.2-94.7,44.3-104.3,107.4c-6,39.3-5.4,79.3,0.1,118.7
		c7.3,51.8,38.1,83.7,88.4,96.5c51.2,13,102.7,11.9,153.9-0.1c31.4-7.3,45.9-43.8,30.4-72.7c-3.6-6.7-9.1-10.3-16.5-9.9
		c-7.3,0.3-14.7,1.5-22,2.5c-38.9,5.7-77.7,12.5-116.8,1.8c-14.4-4-26.5-10.7-31.4-25.9c-5-15.3-0.9-21.2,15.3-21.4
		c23.3-0.3,46.7-0.1,75-0.1c23.4-1.2,51.9,1.8,80.3-1.9c14.2-1.8,22.5-9.7,26.1-23.1c5-18.4,4.3-37.2,3.1-55.8
		C4008.5,251.9,3973.9,212.1,3912.4,200z M3928,319.9c-4,8.2-13.2,4.6-20.2,4.9c-12.5,0.5-25,0.1-37.5,0.1c0,0,0,0,0-0.1
		c-15.4,0-30.7-0.2-46.1,0.1c-10.7,0.2-14.1-4.9-13-14.8c1.8-15.5,9.5-26.6,24.2-32.1c23.3-8.7,46.7-8.6,70,0.1
		c8.2,3,15.1,8.1,19.5,15.8C3929.5,302.1,3932.1,311.4,3928,319.9z"/>
	<path fill="#FFFFFF" d="M2100.7,307.7c-5.6-55.3-41-94.2-95.8-105.6c-29.8-6.2-59.7-7.5-90-3.3c-63.4,8.8-105.1,45.9-115.1,106.1
		c-6.8,40.4-6.4,81.6,0.1,122.1c8.6,54,41.2,86.7,95,98.7c27,6.1,54.3,7.1,81.5,4.5c68.2-6.6,111.3-43.1,122.9-103.7
		c3.9-20.6,5.1-41.7,4-63.3C2104.6,344.9,2102.6,326.3,2100.7,307.7z M2013.9,412.2c-3.2,18.5-13.8,29.6-31.4,33.9
		c-21.2,5.2-42.8,5.5-64.1,0c-20.3-5.2-30.4-17.2-33.2-38.1c-3.6-27.7-3.7-55.3-0.5-83c3.2-28.1,12.8-40,40.3-44.6
		c19-3.2,38.4-3.6,57.5,1.5c18.5,5,28.7,16.4,31.7,35.5c2.5,15.8,2.6,31.6,2.6,47.4C2016.8,380.7,2016.6,396.4,2013.9,412.2z"/>
	<path fill="#FFFFFF" d="M3228.8,201.6c-29.8-6.3-59.9-7.3-89.9-2.2c-67.9,11.3-105,48.5-113.8,116.8c-4.4,34.3-3.9,69.1,0.6,103.6
		c7.7,59.3,42.1,96.1,100.5,107.1c29.9,5.6,59.9,6.2,90,1.4c63.8-10.3,101.6-46.5,111-109.5c2.7-18.3,0.4-37.3,0.4-56.1
		c0.4,0,0.8,0,1.2,0c0-14.2,0.5-28.4-0.1-42.6C3326.4,256.4,3291.2,214.9,3228.8,201.6z M3241.5,405.9c-1.3,22.4-13,35.7-34.6,40.7
		c-20.3,4.7-40.8,4.4-61-0.2c-18.3-4.2-30.3-15-33.2-34.4c-4.6-30.5-3.5-61.1-1-91.7c1.9-23.2,16.4-35.7,38.1-39.7
		c19.7-3.6,39.7-4,59.3,1.3c21,5.8,30.7,17,32.2,38.7c1,14.7,0.2,29.5,0.2,44.3c0,0,0.1,0,0.1,0
		C3241.6,378.7,3242.3,392.3,3241.5,405.9z"/>
	<path fill="#FFFFFF" d="M3671,400.7c0-30.6,0.8-61.3-0.2-91.9c-1.7-54.6-32.5-92.9-84.8-105.7c-37.6-9.2-75.6-9.7-113.3-0.4
		c-50.5,12.5-84.1,43.3-88.9,95.4c-6.2,67.2-2.5,134.9-1.5,202.5c0.2,13,9.9,19.6,22.3,22.3c46.5,10.3,63.7-3.4,63.7-50.9
		c0-9.1,0-18.2,0-27.2c0.1-42-0.3-84,0.4-126c0.4-23.9,9.4-33.6,32.8-38.5c12.4-2.6,25-2,37.5-1.4c33.5,1.4,45.1,13,45.3,46.1
		c0.3,52.2-0.1,104.4,0.2,156.7c0.2,33.8,9.1,42.3,42.7,42.5c4,0,8,0.1,12-0.2c23-1.3,31.7-9.9,32-32.9c0.4-30.1,0.1-60.2,0.1-90.2
		C3671.2,400.7,3671.1,400.7,3671,400.7z"/>
	<path fill="#FFFFFF" d="M4355.1,400.7c0-30.6,0.8-61.3-0.2-91.9c-1.7-54.6-32.6-92.9-84.9-105.7c-37-9.1-74.4-9.7-111.7-0.8
		c-51.2,12.2-85.6,43-90.5,95.9c-6.3,67.2-2.5,134.9-1.5,202.4c0.2,13,9.9,19.6,22.3,22.3c46.5,10.2,63.7-3.4,63.7-50.9
		c0-9.1,0-18.2,0-27.2c0.1-42-0.3-84,0.4-126c0.4-23.9,9.4-33.5,32.8-38.5c12.4-2.6,25-2,37.5-1.4c33.5,1.4,45,13,45.2,46.1
		c0.3,52.2-0.1,104.4,0.2,156.7c0.2,33.8,9.1,42.3,42.7,42.5c4,0,8,0.1,12-0.2c23-1.3,31.7-9.9,32-33c0.4-30.1,0.1-60.2,0.1-90.2
		C4355.3,400.7,4355.2,400.7,4355.1,400.7z"/>
	<path fill="#FFFFFF" d="M4861.7,343.1c-26.5-11.8-54-21.4-80.7-32.7c-9.4-4-23.6-6.2-20.7-20.5c2.6-12.7,15.7-10.8,25.7-11.6
		c4-0.3,8-0.3,12-0.4c25.1-0.2,50,0.8,74.7,6.6c11.4,2.7,24.3,5,32-8.4c15.6-27,1.5-63.1-28.4-70.9c-43.7-11.4-87.8-12.4-132-2.3
		c-36.4,8.3-61.5,28.7-68.6,67c-9.1,49.5,8.9,85.3,54.4,107.5c7.7,3.7,15.6,7,23.4,10.4c24,10.5,48.1,20.7,72,31.4
		c6.9,3.1,13.3,8,12.2,16.7c-1.2,9.7-9.5,12-17.5,13.6c-4.4,0.9-9.1,0.8-13.6,1c-34.9,1.4-69.4-1.5-103.3-10.3
		c-9.6-2.5-19.3-3.9-27,4.6c-18.8,20.4-6.4,67.8,20.1,75.5c28.6,8.3,58.1,11.3,91.2,10.6c16.8,1.1,36.6-0.4,56.2-4.5
		c9.4-2,18.7-5,27.7-8.5c25.7-9.9,42-28.3,48.5-55.2C4933.2,407.6,4913.7,366.3,4861.7,343.1z"/>
	<path fill="#FFFFFF" d="M4615.6,444.2c-17.6,1.6-35,4.5-52.7,4.1c-27.4-0.5-38.2-10.3-39.6-37.9c-0.9-18.1-0.2-36.3-0.2-54.5
		c-0.1,0-0.1,0-0.2,0c0-18.2,0.5-36.3-0.2-54.5c-0.4-11.6,3.7-16.4,15.7-16c20.5,0.6,41,0.5,61.5-0.1c20.5-0.6,29-8.7,30.9-28.8
		c0.8-9,0.3-18.2-0.7-27.1c-1.7-15-10.5-22.8-25.9-24.5c-20.5-2.3-41-2.3-61.4-1.5c-15.9,0.6-21.5-5.3-20.2-20.8
		c1-11.8,0.3-23.8-0.1-35.7c-0.4-10.5-5-18.4-15.4-22.3c-32.2-12.2-56.5,1.3-62.3,34.6c-0.6,3.4-2.1,6.7-2,10
		c0.6,25.7-10,39.5-37.3,43.6c-21.8,3.3-29.1,22.4-24.5,50.3c2.8,16.6,11.1,23.4,34.1,22.3c18.3-0.9,21.9,6.8,21.7,23
		c-0.6,40.3-1,80.6,1.7,120.8c3.4,50.6,31,85.3,78.7,96.8c25.2,6.1,50.7,7,76.3,2.8c42-6.8,52.4-20.1,48.6-62
		C4640.6,448.7,4634.1,442.5,4615.6,444.2z"/>
	<path fill="#FFFFFF" d="M1732.7,445.7c-22.5,3.7-44.9,6.1-67.8,2.1c-30-5.2-44.6-19.4-45.8-49.7c-0.9-23.2-0.9-46.5,0-69.8
		c1.3-32.3,16.5-47.2,49-49.3c21.1-1.3,42.1-0.9,62.8,4.4c9.3,2.4,18.3,2.2,25-6c18.5-23,3.8-67.6-24.8-75.1
		c-26.3-6.9-52.8-7.1-79.6-3.6c-69.4,9.2-111.2,50.7-118.8,120c-1.7,15.1-0.2,30.6-0.2,45.9c-0.2,0-0.3,0-0.5,0
		c0,13.1-0.6,26.1,0.1,39.1c3.5,68.5,38,109.5,103.7,122.8c29.8,6,59.8,6.7,89.9,1.3c35.4-6.3,46.4-21.2,41.5-57
		C1763.9,447.4,1756.5,441.8,1732.7,445.7z"/>
</g>
</svg>
